<mxfile host="app.diagrams.net" modified="2023-10-03T08:13:00.198Z" agent="Mozilla/5.0 (Windows NT 10.0; Win64; x64) AppleWebKit/537.36 (KHTML, like Gecko) Chrome/117.0.0.0 Safari/537.36" version="22.0.1" etag="LHls6vzyQRbUGmWkXGfD" type="github">
  <diagram name="Page-1" id="b2kBFRHrcxZwtMPWa1sp">
    <mxGraphModel>
      <root>
        <mxCell id="0" />
        <mxCell id="1" parent="0" />
      </root>
    </mxGraphModel>
  </diagram>
</mxfile>
